<?xml version="1.0" encoding="UTF-8" standalone="no"?>
<!-- Created with Inkscape (http://www.inkscape.org/) -->

<svg
   xmlns:dc="http://purl.org/dc/elements/1.1/"
   xmlns:cc="http://creativecommons.org/ns#"
   xmlns:rdf="http://www.w3.org/1999/02/22-rdf-syntax-ns#"
   xmlns:svg="http://www.w3.org/2000/svg"
   xmlns="http://www.w3.org/2000/svg"
   xmlns:sodipodi="http://sodipodi.sourceforge.net/DTD/sodipodi-0.dtd"
   xmlns:inkscape="http://www.inkscape.org/namespaces/inkscape"
   width="210mm"
   height="297mm"
   viewBox="0 0 210 297"
   version="1.1"
   id="svg8"
   inkscape:version="0.92.3 (2405546, 2018-03-11)"
   sodipodi:docname="diagrama-mobile.svg">
  <defs
     id="defs2" />
  <sodipodi:namedview
     id="base"
     pagecolor="#ffffff"
     bordercolor="#666666"
     borderopacity="1.0"
     inkscape:pageopacity="0.0"
     inkscape:pageshadow="2"
     inkscape:zoom="0.5"
     inkscape:cx="151.34007"
     inkscape:cy="319.77803"
     inkscape:document-units="mm"
     inkscape:current-layer="layer1"
     showgrid="false"
     inkscape:window-width="1366"
     inkscape:window-height="704"
     inkscape:window-x="0"
     inkscape:window-y="27"
     inkscape:window-maximized="1" />
  <metadata
     id="metadata5">
    <rdf:RDF>
      <cc:Work
         rdf:about="">
        <dc:format>image/svg+xml</dc:format>
        <dc:type
           rdf:resource="http://purl.org/dc/dcmitype/StillImage" />
        <dc:title></dc:title>
      </cc:Work>
    </rdf:RDF>
  </metadata>
  <g
     inkscape:label="Capa 1"
     inkscape:groupmode="layer"
     id="layer1">
    <path class="white-circle translation"
       style="fill:#ffffff;fill-opacity:1;stroke:#ffffff;stroke-width:0.26458332;stroke-opacity:0.94117647"
       d="M 48.38095,23.345238 A 15.497024,15.119047 0 0 1 32.883926,38.464285 15.497024,15.119047 0 0 1 17.386903,23.345238 15.497024,15.119047 0 0 1 32.883926,8.2261906 15.497024,15.119047 0 0 1 48.38095,23.345238 Z"
       id="circle-1"
       inkscape:label="#path10" />
    <path class="grey-circle ruby"
       style="fill:#b3b3b3;fill-opacity:1;stroke:#ffffff;stroke-width:0.26458332;stroke-opacity:0.94117647"
       d="M 48.38134,69.037674 A 15.497025,15.119047 0 0 1 32.884315,84.156721 15.497025,15.119047 0 0 1 17.387291,69.037674 15.497025,15.119047 0 0 1 32.884315,53.918627 15.497025,15.119047 0 0 1 48.38134,69.037674 Z"
       id="circle-2"
       inkscape:label="#path10-5" />
    <path class="white-circle udemy"
       style="fill:#ffffff;fill-opacity:1;stroke:#ffffff;stroke-width:0.26458332;stroke-opacity:0.94117647"
       d="M 48.38134,115.09866 A 15.497025,15.119047 0 0 1 32.884315,130.21771 15.497025,15.119047 0 0 1 17.387291,115.09866 15.497025,15.119047 0 0 1 32.884315,99.979616 15.497025,15.119047 0 0 1 48.38134,115.09866 Z"
       id="circle-3"
       inkscape:label="#path10-9" />
    <path class="white-circle development"
       style="fill:#ffffff;fill-opacity:1;stroke:#ffffff;stroke-width:0.26458332;stroke-opacity:0.94117647"
       d="M 48.38134,211.01666 A 15.497025,15.119047 0 0 1 32.884315,226.13571 15.497025,15.119047 0 0 1 17.387291,211.01666 15.497025,15.119047 0 0 1 32.884315,195.89762 15.497025,15.119047 0 0 1 48.38134,211.01666 Z"
       id="circle-5"
       inkscape:label="#path10-8" />
    <path class="grey-circle laboratoria"
       style="fill:#b3b3b3;fill-opacity:1;stroke:#ffffff;stroke-width:0.26458332;stroke-opacity:0.94117647"
       d="M 48.38134,163.23561 A 15.497025,15.119047 0 0 1 32.884315,178.35466 15.497025,15.119047 0 0 1 17.387291,163.23561 15.497025,15.119047 0 0 1 32.884315,148.11656 15.497025,15.119047 0 0 1 48.38134,163.23561 Z"
       id="circle-4"
       inkscape:label="#path10-4" />
    <path class="grey-circle extra-info"
       style="fill:#b3b3b3;fill-opacity:1;stroke:#ffffff;stroke-width:0.26458332;stroke-opacity:0.94117647"
       d="M 48.38134,255.78165 A 15.497025,15.119047 0 0 1 32.884315,270.90069 15.497025,15.119047 0 0 1 17.387291,255.78165 15.497025,15.119047 0 0 1 32.884315,240.6626 15.497025,15.119047 0 0 1 48.38134,255.78165 Z"
       id="circle-6"
       inkscape:label="#path10-81" />
    <path
       style="fill:#999999;stroke:#ffffff;stroke-width:0.26458332px;stroke-linecap:butt;stroke-linejoin:miter;stroke-opacity:1"
       d="m 31.75,37.179168 0.529166,17.462499"
       id="path872"
       inkscape:connector-curvature="0" />
    <path
       style="fill:none;stroke:#ffffff;stroke-width:0.26458332px;stroke-linecap:butt;stroke-linejoin:miter;stroke-opacity:1"
       d="M 32.279166,83.745834 V 100.15"
       id="path874"
       inkscape:connector-curvature="0" />
    <path
       style="fill:none;stroke:#ffffff;stroke-width:0.26458332px;stroke-linecap:butt;stroke-linejoin:miter;stroke-opacity:1"
       d="M 32.279166,129.78333 31.75,148.83333"
       id="path876"
       inkscape:connector-curvature="0" />
    <path
       style="fill:none;stroke:#ffffff;stroke-width:0.26458332px;stroke-linecap:butt;stroke-linejoin:miter;stroke-opacity:1"
       d="M 31.75,177.40833 V 196.9875"
       id="path878"
       inkscape:connector-curvature="0" />
    <path
       style="fill:none;stroke:#ffffff;stroke-width:0.26458332px;stroke-linecap:butt;stroke-linejoin:miter;stroke-opacity:1"
       d="M 31.220833,225.03333 V 241.4375"
       id="path880"
       inkscape:connector-curvature="0" />
    <flowRoot
       xml:space="preserve"
       id="flowRoot882"
       style="font-style:normal;font-variant:normal;font-weight:600;font-stretch:normal;font-size:24px;line-height:1.25;font-family:Montserrat;-inkscape-font-specification:'Montserrat, Semi-Bold';font-variant-ligatures:normal;font-variant-caps:normal;font-variant-numeric:normal;text-align:start;letter-spacing:0px;word-spacing:0px;writing-mode:lr-tb;text-anchor:start;fill:#000000;fill-opacity:1;stroke:none"
       transform="scale(0.26458333)"><flowRegion
         id="flowRegion884"><rect
           id="rect886"
           width="234"
           height="112"
           x="254"
           y="46.519684" /></flowRegion><flowPara
         id="flowPara888" /></flowRoot>    <flowRoot
       xml:space="preserve"
       id="flowRoot890"
       style="fill:black;fill-opacity:1;stroke:none;font-family:Montserrat;font-style:normal;font-weight:600;font-size:24px;line-height:1.25;letter-spacing:0px;word-spacing:0px;-inkscape-font-specification:'Montserrat, Semi-Bold';font-stretch:normal;font-variant:normal;text-anchor:start;text-align:start;writing-mode:lr;font-variant-ligatures:normal;font-variant-caps:normal;font-variant-numeric:normal"><flowRegion
         id="flowRegion892"><rect
           id="rect894"
           width="256"
           height="102"
           x="298"
           y="48.519684" /></flowRegion><flowPara
         id="flowPara896"></flowPara></flowRoot>    <g
       aria-label="Traducción
Inglés-Español"
       style="font-style:normal;font-variant:normal;font-weight:600;font-stretch:normal;font-size:6.3499999px;line-height:1.25;font-family:Montserrat;-inkscape-font-specification:'Montserrat, Semi-Bold';font-variant-ligatures:normal;font-variant-caps:normal;font-variant-numeric:normal;text-align:start;letter-spacing:0px;word-spacing:0px;writing-mode:lr-tb;text-anchor:start;fill:#ffffff;fill-opacity:1;stroke:none;stroke-width:0.26458332"
       id="text900">
      <path
         d="m 52.827759,20.775 h 0.8255 v -3.7465 h 1.4732 V 16.33 h -3.7719 v 0.6985 h 1.4732 z"
         style="stroke-width:0.26458332;fill:#ffffff"
         id="path946" />
      <path
         d="m 56.338614,17.8794 v -0.4953 h -0.75565 v 3.3909 h 0.79375 v -1.64465 c 0,-0.69215 0.381,-1.04775 0.98425,-1.04775 0.05715,0 0.1143,0.0064 0.18415,0.01905 V 17.346 c -0.56515,0 -0.9779,0.1778 -1.2065,0.5334 z"
         style="stroke-width:0.26458332;fill:#ffffff"
         id="path948" />
      <path
         d="m 59.495259,17.346 c -0.5461,0 -1.07315,0.1397 -1.4351,0.4191 l 0.31115,0.57785 c 0.254,-0.20955 0.6477,-0.33655 1.0287,-0.33655 0.56515,0 0.84455,0.27305 0.84455,0.7366 v 0.0508 h -0.8763 c -1.0287,0 -1.4097,0.4445 -1.4097,1.00965 0,0.59055 0.48895,1.016 1.26365,1.016 0.508,0 0.8763,-0.1651 1.0668,-0.4572 V 20.775 h 0.7493 v -1.98755 c 0,-0.9779 -0.56515,-1.44145 -1.54305,-1.44145 z m -0.10795,2.8956 c -0.4064,0 -0.6477,-0.18415 -0.6477,-0.4699 0,-0.24765 0.14605,-0.45085 0.6858,-0.45085 h 0.81915 v 0.3937 c -0.13335,0.34925 -0.4699,0.52705 -0.85725,0.52705 z"
         style="stroke-width:0.26458332;fill:#ffffff"
         id="path950" />
      <path
         d="m 64.621495,16.0633 v 1.7399 c -0.2667,-0.31115 -0.65405,-0.4572 -1.0922,-0.4572 -0.98425,0 -1.7145,0.67945 -1.7145,1.73355 0,1.0541 0.73025,1.7399 1.7145,1.7399 0.46355,0 0.85725,-0.15875 1.12395,-0.4826 V 20.775 h 0.762 v -4.7117 z m -0.99695,4.0767 c -0.5715,0 -1.00965,-0.41275 -1.00965,-1.06045 0,-0.6477 0.43815,-1.06045 1.00965,-1.06045 0.5715,0 1.00965,0.41275 1.00965,1.06045 0,0.6477 -0.43815,1.06045 -1.00965,1.06045 z"
         style="stroke-width:0.26458332;fill:#ffffff"
         id="path952" />
      <path
         d="m 68.949019,17.3841 v 1.7145 c 0,0.67945 -0.37465,1.02235 -0.9271,1.02235 -0.50165,0 -0.79375,-0.2921 -0.79375,-0.90805 v -1.8288 h -0.79375 v 1.93675 c 0,1.02235 0.59055,1.4986 1.4605,1.4986 0.43815,0 0.8382,-0.1651 1.0922,-0.47625 v 0.4318 h 0.75565 v -3.3909 z"
         style="stroke-width:0.26458332;fill:#ffffff"
         id="path954" />
      <path
         d="m 72.343988,20.81945 c 0.6604,0 1.18745,-0.28575 1.4478,-0.79375 l -0.6096,-0.3556 c -0.2032,0.32385 -0.508,0.4699 -0.84455,0.4699 -0.5842,0 -1.0287,-0.40005 -1.0287,-1.06045 0,-0.65405 0.4445,-1.06045 1.0287,-1.06045 0.33655,0 0.64135,0.14605 0.84455,0.4699 l 0.6096,-0.3556 c -0.26035,-0.51435 -0.7874,-0.7874 -1.4478,-0.7874 -1.07315,0 -1.83515,0.71755 -1.83515,1.73355 0,1.016 0.762,1.7399 1.83515,1.7399 z"
         style="stroke-width:0.26458332;fill:#ffffff"
         id="path956" />
      <path
         d="m 75.977874,20.81945 c 0.6604,0 1.18745,-0.28575 1.4478,-0.79375 l -0.6096,-0.3556 c -0.2032,0.32385 -0.508,0.4699 -0.84455,0.4699 -0.5842,0 -1.0287,-0.40005 -1.0287,-1.06045 0,-0.65405 0.4445,-1.06045 1.0287,-1.06045 0.33655,0 0.64135,0.14605 0.84455,0.4699 l 0.6096,-0.3556 c -0.26035,-0.51435 -0.7874,-0.7874 -1.4478,-0.7874 -1.07315,0 -1.83515,0.71755 -1.83515,1.73355 0,1.016 0.762,1.7399 1.83515,1.7399 z"
         style="stroke-width:0.26458332;fill:#ffffff"
         id="path958" />
      <path
         d="m 78.505669,16.8253 c 0.29845,0 0.508,-0.2159 0.508,-0.4953 0,-0.26035 -0.2159,-0.4572 -0.508,-0.4572 -0.2921,0 -0.508,0.20955 -0.508,0.47625 0,0.2667 0.2159,0.47625 0.508,0.47625 z m -0.40005,3.9497 h 0.79375 v -3.3909 h -0.79375 z"
         style="stroke-width:0.26458332;fill:#ffffff"
         id="path960" />
      <path
         d="m 80.925417,16.92055 h 0.6858 l 1.1049,-0.86995 h -0.93345 z m 0.53975,3.8989 c 1.0541,0 1.80975,-0.7239 1.80975,-1.7399 0,-1.016 -0.75565,-1.73355 -1.80975,-1.73355 -1.0414,0 -1.8034,0.71755 -1.8034,1.73355 0,1.016 0.762,1.7399 1.8034,1.7399 z m 0,-0.67945 c -0.5715,0 -1.0033,-0.41275 -1.0033,-1.06045 0,-0.6477 0.4318,-1.06045 1.0033,-1.06045 0.57785,0 1.00965,0.41275 1.00965,1.06045 0,0.6477 -0.4318,1.06045 -1.00965,1.06045 z"
         style="stroke-width:0.26458332;fill:#ffffff"
         id="path962" />
      <path
         d="m 85.957991,17.346 c -0.4953,0 -0.90805,0.1651 -1.1684,0.47625 V 17.3841 h -0.75565 v 3.3909 h 0.79375 v -1.7145 c 0,-0.67945 0.381,-1.02235 0.94615,-1.02235 0.508,0 0.80645,0.2921 0.80645,0.89535 v 1.8415 h 0.79375 v -1.9431 c 0,-1.02235 -0.60325,-1.4859 -1.41605,-1.4859 z"
         style="stroke-width:0.26458332;fill:#ffffff"
         id="path964" />
      <path
         d="m 51.926059,28.712499 h 0.8255 V 24.2675 h -0.8255 z"
         style="stroke-width:0.26458332;fill:#ffffff"
         id="path966" />
      <path
         d="m 55.795491,25.2835 c -0.4953,0 -0.90805,0.1651 -1.1684,0.47625 V 25.3216 h -0.75565 v 3.390899 h 0.79375 V 26.998 c 0,-0.67945 0.381,-1.02235 0.94615,-1.02235 0.508,0 0.80645,0.2921 0.80645,0.89535 v 1.841499 h 0.79375 V 26.7694 c 0,-1.02235 -0.60325,-1.4859 -1.41605,-1.4859 z"
         style="stroke-width:0.26458332;fill:#ffffff"
         id="path968" />
      <path
         d="m 60.87172,25.3216 v 0.45085 c -0.2794,-0.33655 -0.6985,-0.48895 -1.17475,-0.48895 -0.97155,0 -1.7145,0.6477 -1.7145,1.63195 0,0.98425 0.74295,1.64465 1.7145,1.64465 0.4572,0 0.85725,-0.14605 1.13665,-0.45085 v 0.1778 c 0,0.685799 -0.3302,1.028699 -1.0795,1.028699 -0.4699,0 -0.9525,-0.15875 -1.25095,-0.4064 l -0.3556,0.5969 c 0.38735,0.3175 1.016,0.4826 1.651,0.4826 1.18745,0 1.8288,-0.5588 1.8288,-1.790699 V 25.3216 Z m -1.0541,2.5654 c -0.60325,0 -1.03505,-0.3937 -1.03505,-0.97155 0,-0.5715 0.4318,-0.95885 1.03505,-0.95885 0.5969,0 1.0287,0.38735 1.0287,0.95885 0,0.57785 -0.4318,0.97155 -1.0287,0.97155 z"
         style="stroke-width:0.26458332;fill:#ffffff"
         id="path970" />
      <path
         d="m 62.664702,28.712499 h 0.79375 V 24.0008 h -0.79375 z"
         style="stroke-width:0.26458332;fill:#ffffff"
         id="path972" />
      <path
         d="m 67.211699,23.9881 h -0.93345 l -0.85725,0.86995 h 0.6858 z m 0.47625,3.048 c 0,-1.06045 -0.7239,-1.7526 -1.7145,-1.7526 -1.00965,0 -1.7526,0.7239 -1.7526,1.73355 0,1.00965 0.7366,1.739899 1.87325,1.739899 0.5842,0 1.06045,-0.190499 1.36525,-0.552449 l -0.42545,-0.48895 c -0.2413,0.24765 -0.53975,0.3683 -0.92075,0.3683 -0.59055,0 -1.0033,-0.3175 -1.09855,-0.8128 h 2.66065 c 0.0064,-0.0762 0.0127,-0.17145 0.0127,-0.23495 z m -1.7145,-1.1176 c 0.5207,0 0.89535,0.33655 0.95885,0.8255 h -1.92405 c 0.0762,-0.4953 0.45085,-0.8255 0.9652,-0.8255 z"
         style="stroke-width:0.26458332;fill:#ffffff"
         id="path974" />
      <path
         d="m 69.491944,28.756949 c 0.9525,0 1.5367,-0.412749 1.5367,-1.047749 0,-1.32715 -2.0955,-0.71755 -2.0955,-1.40335 0,-0.22225 0.2286,-0.381 0.7112,-0.381 0.32385,0 0.6477,0.0635 0.97155,0.254 l 0.3048,-0.60325 c -0.3048,-0.18415 -0.81915,-0.2921 -1.27,-0.2921 -0.9144,0 -1.49225,0.4191 -1.49225,1.06045 0,1.35255 2.0955,0.74295 2.0955,1.39065 0,0.23495 -0.20955,0.37465 -0.7112,0.37465 -0.42545,0 -0.88265,-0.1397 -1.1811,-0.33655 l -0.3048,0.60325 c 0.3048,0.2159 0.86995,0.380999 1.4351,0.380999 z"
         style="stroke-width:0.26458332;fill:#ffffff"
         id="path976" />
      <path
         d="m 71.546964,27.2774 h 1.74625 V 26.617 h -1.74625 z"
         style="stroke-width:0.26458332;fill:#ffffff"
         id="path978" />
      <path
         d="M 75.063374,28.02035 V 26.7948 h 2.1463 v -0.67945 h -2.1463 v -1.1557 h 2.41935 V 24.2675 h -3.24485 v 4.444999 h 3.33375 V 28.02035 Z"
         style="stroke-width:0.26458332;fill:#ffffff"
         id="path980" />
      <path
         d="m 79.426221,28.756949 c 0.9525,0 1.5367,-0.412749 1.5367,-1.047749 0,-1.32715 -2.0955,-0.71755 -2.0955,-1.40335 0,-0.22225 0.2286,-0.381 0.7112,-0.381 0.32385,0 0.6477,0.0635 0.97155,0.254 l 0.3048,-0.60325 c -0.3048,-0.18415 -0.81915,-0.2921 -1.27,-0.2921 -0.9144,0 -1.49225,0.4191 -1.49225,1.06045 0,1.35255 2.0955,0.74295 2.0955,1.39065 0,0.23495 -0.20955,0.37465 -0.7112,0.37465 -0.42545,0 -0.88265,-0.1397 -1.1811,-0.33655 l -0.3048,0.60325 c 0.3048,0.2159 0.86995,0.380999 1.4351,0.380999 z"
         style="stroke-width:0.26458332;fill:#ffffff"
         id="path982" />
      <path
         d="m 83.53229,25.2835 c -0.46355,0 -0.85725,0.15875 -1.12395,0.4826 v -0.4445 h -0.75565 v 4.622799 h 0.79375 V 28.29975 c 0.27305,0.31115 0.65405,0.457199 1.08585,0.457199 0.9906,0 1.72085,-0.685799 1.72085,-1.739899 0,-1.04775 -0.73025,-1.73355 -1.72085,-1.73355 z m -0.0889,2.794 c -0.5715,0 -1.00965,-0.41275 -1.00965,-1.06045 0,-0.6477 0.43815,-1.06045 1.00965,-1.06045 0.5715,0 1.0033,0.41275 1.0033,1.06045 0,0.6477 -0.4318,1.06045 -1.0033,1.06045 z"
         style="stroke-width:0.26458332;fill:#ffffff"
         id="path984" />
      <path
         d="m 87.251704,25.2835 c -0.5461,0 -1.07315,0.1397 -1.4351,0.4191 l 0.31115,0.57785 c 0.254,-0.20955 0.6477,-0.33655 1.0287,-0.33655 0.56515,0 0.84455,0.27305 0.84455,0.7366 v 0.0508 h -0.8763 c -1.0287,0 -1.4097,0.4445 -1.4097,1.00965 0,0.59055 0.48895,1.015999 1.26365,1.015999 0.508,0 0.8763,-0.165099 1.0668,-0.457199 v 0.412749 h 0.7493 V 26.72495 c 0,-0.9779 -0.56515,-1.44145 -1.54305,-1.44145 z m -0.10795,2.8956 c -0.4064,0 -0.6477,-0.18415 -0.6477,-0.4699 0,-0.24765 0.14605,-0.45085 0.6858,-0.45085 h 0.81915 v 0.3937 c -0.13335,0.34925 -0.4699,0.52705 -0.85725,0.52705 z"
         style="stroke-width:0.26458332;fill:#ffffff"
         id="path986" />
      <path
         d="m 91.077082,24.43895 c 0.2286,0 0.4445,0.4191 0.8636,0.4191 0.4064,0 0.6731,-0.33655 0.6858,-0.83185 h -0.42545 c -0.0127,0.2286 -0.13335,0.36195 -0.31115,0.36195 -0.2286,0 -0.4445,-0.4191 -0.8636,-0.4191 -0.4064,0 -0.6731,0.3302 -0.6858,0.8509 h 0.42545 c 0.0127,-0.2413 0.13335,-0.381 0.31115,-0.381 z m 0.6604,0.84455 c -0.4953,0 -0.90805,0.1651 -1.1684,0.47625 V 25.3216 h -0.75565 v 3.390899 h 0.79375 V 26.998 c 0,-0.67945 0.381,-1.02235 0.94615,-1.02235 0.508,0 0.80645,0.2921 0.80645,0.89535 v 1.841499 h 0.79375 V 26.7694 c 0,-1.02235 -0.60325,-1.4859 -1.41605,-1.4859 z"
         style="stroke-width:0.26458332;fill:#ffffff"
         id="path988" />
      <path
         d="m 95.727863,28.756949 c 1.0541,0 1.80975,-0.723899 1.80975,-1.739899 0,-1.016 -0.75565,-1.73355 -1.80975,-1.73355 -1.0414,0 -1.8034,0.71755 -1.8034,1.73355 0,1.016 0.762,1.739899 1.8034,1.739899 z m 0,-0.679449 c -0.5715,0 -1.0033,-0.41275 -1.0033,-1.06045 0,-0.6477 0.4318,-1.06045 1.0033,-1.06045 0.57785,0 1.00965,0.41275 1.00965,1.06045 0,0.6477 -0.4318,1.06045 -1.00965,1.06045 z"
         style="stroke-width:0.26458332;fill:#ffffff"
         id="path990" />
      <path
         d="m 98.296636,28.712499 h 0.79375 V 24.0008 h -0.79375 z"
         style="stroke-width:0.26458332;fill:#ffffff"
         id="path992" />
    </g>
    <g
       aria-label="Fullstack Ruby on Rails"
       transform="matrix(0.26458333,0,0,0.26458333,-56.091667,1.0583333)"
       style="font-style:normal;font-variant:normal;font-weight:600;font-stretch:normal;font-size:24px;line-height:1.25;font-family:Montserrat;-inkscape-font-specification:'Montserrat, Semi-Bold';font-variant-ligatures:normal;font-variant-caps:normal;font-variant-numeric:normal;text-align:start;letter-spacing:0px;word-spacing:0px;writing-mode:lr-tb;text-anchor:start;fill:#ffffff;fill-opacity:1;stroke:none"
       id="flowRoot904">
      <path
         d="m 422.52,238.39378 v -2.616 h -12.264 v 16.8 h 3.12 v -6.432 h 8.112 v -2.64 h -8.112 v -5.112 z"
         style="fill:#ffffff"
         id="path995" />
      <path
         d="m 434.28225,239.76178 v 6.48 c 0,2.568 -1.416,3.864 -3.504,3.864 -1.896,0 -3,-1.104 -3,-3.432 v -6.912 h -3 v 7.32 c 0,3.864 2.232,5.664 5.52,5.664 1.656,0 3.168,-0.624 4.128,-1.8 v 1.632 h 2.856 v -12.816 z"
         style="fill:#ffffff"
         id="path997" />
      <path
         d="m 441.23363,252.57778 h 3 v -17.808 h -3 z"
         style="fill:#ffffff"
         id="path999" />
      <path
         d="m 448.17113,252.57778 h 3 v -17.808 h -3 z"
         style="fill:#ffffff"
         id="path1001" />
      <path
         d="m 459.06862,252.74578 c 3.60001,0 5.808,-1.56 5.808,-3.96 0,-5.016 -7.92,-2.712 -7.92,-5.304 0,-0.84 0.864,-1.44 2.68801,-1.44 1.22399,0 2.44799,0.24 3.67199,0.96 l 1.152,-2.28 c -1.152,-0.696 -3.09599,-1.104 -4.79999,-1.104 -3.45601,0 -5.64001,1.584 -5.64001,4.008 0,5.112 7.92,2.808 7.92,5.256 0,0.888 -0.79199,1.416 -2.688,1.416 -1.608,0 -3.336,-0.528 -4.464,-1.272 l -1.15199,2.28 c 1.15199,0.816 3.28799,1.44 5.42399,1.44 z"
         style="fill:#ffffff"
         id="path1003" />
      <path
         d="m 474.34762,249.74578 c -0.456,0.36 -1.056,0.528 -1.68,0.528 -1.152,0 -1.776,-0.672 -1.776,-1.92 v -6.096 h 3.432 v -2.4 h -3.432 v -2.928 h -3 v 2.928 h -2.112 v 2.4 h 2.112 v 6.168 c 0,2.832 1.608,4.32 4.416,4.32 1.08001,0 2.16,-0.288 2.88001,-0.864 z"
         style="fill:#ffffff"
         id="path1005" />
      <path
         d="m 482.5515,239.61778 c -2.064,0 -4.056,0.528 -5.424,1.584 l 1.176,2.184 c 0.96,-0.792 2.448,-1.272 3.888,-1.272 2.136,0 3.192,1.032 3.192,2.784 v 0.192 h -3.312 c -3.888,0 -5.328,1.68 -5.328,3.816 0,2.232 1.848,3.84 4.776,3.84 1.92,0 3.312,-0.624 4.032,-1.728 v 1.56 h 2.832 v -7.512 c 0,-3.696 -2.136,-5.448 -5.832,-5.448 z m -0.408,10.944 c -1.536,0 -2.448,-0.696 -2.448,-1.776 0,-0.936 0.552,-1.704 2.592,-1.704 h 3.096 v 1.488 c -0.504,1.32 -1.776,1.992 -3.24,1.992 z"
         style="fill:#ffffff"
         id="path1007" />
      <path
         d="m 498.25425,252.74578 c 2.496,0 4.488,-1.08 5.472,-3 l -2.304,-1.344 c -0.768,1.224 -1.92,1.776 -3.192,1.776 -2.208,0 -3.888,-1.512 -3.888,-4.008 0,-2.472 1.68,-4.008 3.888,-4.008 1.272,0 2.424,0.552 3.192,1.776 l 2.304,-1.344 c -0.984,-1.944 -2.976,-2.976 -5.472,-2.976 -4.056,0 -6.936,2.712 -6.936,6.552 0,3.84 2.88,6.576 6.936,6.576 z"
         style="fill:#ffffff"
         id="path1009" />
      <path
         d="m 515.8275,252.57778 h 3.648 l -5.856,-7.44 5.352,-5.376 h -3.6 l -6.216,5.76 v -10.752 h -3 v 17.808 h 3 v -3.384 l 2.232,-2.112 z"
         style="fill:#ffffff"
         id="path1011" />
      <path
         d="m 542.68612,252.57778 -3.86399,-5.52 c 2.27999,-0.888 3.576,-2.76 3.576,-5.304 0,-3.72 -2.73601,-5.976 -7.15201,-5.976 h -6.912 v 16.8 h 3.12 v -4.896 h 3.792 c 0.21601,0 0.43201,0 0.64801,-0.024 l 3.432,4.92 z m -3.43199,-10.824 c 0,2.112 -1.41601,3.36 -4.15201,3.36 h -3.648 v -6.696 h 3.648 c 2.736,0 4.15201,1.224 4.15201,3.336 z"
         style="fill:#ffffff"
         id="path1013" />
      <path
         d="m 554.98537,239.76178 v 6.48 c 0,2.568 -1.41599,3.864 -3.504,3.864 -1.896,0 -3,-1.104 -3,-3.432 v -6.912 h -3 v 7.32 c 0,3.864 2.23201,5.664 5.52001,5.664 1.65599,0 3.16799,-0.624 4.12799,-1.8 v 1.632 h 2.856 v -12.816 z"
         style="fill:#ffffff"
         id="path1015" />
      <path
         d="m 569.04075,239.61778 c -1.632,0 -3.072,0.552 -4.104,1.704 v -6.552 h -3 v 17.808 h 2.856 v -1.656 c 1.008,1.224 2.496,1.824 4.248,1.824 3.744,0 6.504,-2.592 6.504,-6.576 0,-3.984 -2.76,-6.552 -6.504,-6.552 z m -0.336,10.56 c -2.16,0 -3.816,-1.56 -3.816,-4.008 0,-2.448 1.656,-4.008 3.816,-4.008 2.16,0 3.792,1.56 3.792,4.008 0,2.448 -1.632,4.008 -3.792,4.008 z"
         style="fill:#ffffff"
         id="path1017" />
      <path
         d="m 587.13487,239.76178 -4.05599,9.48 -4.03201,-9.48 h -3.12 l 5.592,12.864 -0.216,0.504 c -0.576,1.272 -1.19999,1.776 -2.256,1.776 -0.816,0 -1.63199,-0.336 -2.20799,-0.888 l -1.20001,2.208 c 0.81601,0.744 2.16,1.176 3.432,1.176 2.136,0 3.76801,-0.888 4.944,-3.792 l 6,-13.848 z"
         style="fill:#ffffff"
         id="path1019" />
      <path
         d="m 415.728,282.74578 c 3.984,0 6.84,-2.736 6.84,-6.576 0,-3.84 -2.856,-6.552 -6.84,-6.552 -3.936,0 -6.816,2.712 -6.816,6.552 0,3.84 2.88,6.576 6.816,6.576 z m 0,-2.568 c -2.16,0 -3.792,-1.56 -3.792,-4.008 0,-2.448 1.632,-4.008 3.792,-4.008 2.184,0 3.816,1.56 3.816,4.008 0,2.448 -1.632,4.008 -3.816,4.008 z"
         style="fill:#ffffff"
         id="path1021" />
      <path
         d="m 432.70875,269.61778 c -1.872,0 -3.432,0.624 -4.416,1.8 v -1.656 h -2.856 v 12.816 h 3 v -6.48 c 0,-2.568 1.44,-3.864 3.576,-3.864 1.92,0 3.048,1.104 3.048,3.384 v 6.96 h 3 v -7.344 c 0,-3.864 -2.28,-5.616 -5.352,-5.616 z"
         style="fill:#ffffff"
         id="path1023" />
      <path
         d="m 463.13925,282.57778 -3.864,-5.52 c 2.28,-0.888 3.576,-2.76 3.576,-5.304 0,-3.72 -2.736,-5.976 -7.152,-5.976 h -6.912 v 16.8 h 3.12 v -4.896 h 3.792 c 0.216,0 0.432,0 0.648,-0.024 l 3.432,4.92 z m -3.432,-10.824 c 0,2.112 -1.416,3.36 -4.152,3.36 h -3.648 v -6.696 h 3.648 c 2.736,0 4.152,1.224 4.152,3.336 z"
         style="fill:#ffffff"
         id="path1025" />
      <path
         d="m 470.78587,269.61778 c -2.064,0 -4.056,0.528 -5.424,1.584 l 1.176,2.184 c 0.96001,-0.792 2.44801,-1.272 3.88801,-1.272 2.13599,0 3.192,1.032 3.192,2.784 v 0.192 h -3.312 c -3.88801,0 -5.32801,1.68 -5.32801,3.816 0,2.232 1.848,3.84 4.776,3.84 1.92,0 3.312,-0.624 4.032,-1.728 v 1.56 h 2.83201 v -7.512 c 0,-3.696 -2.13601,-5.448 -5.83201,-5.448 z m -0.40799,10.944 c -1.536,0 -2.44801,-0.696 -2.44801,-1.776 0,-0.936 0.552,-1.704 2.59201,-1.704 h 3.096 v 1.488 c -0.50401,1.32 -1.776,1.992 -3.24,1.992 z"
         style="fill:#ffffff"
         id="path1027" />
      <path
         d="m 481.98,267.64978 c 1.128,0 1.92,-0.816 1.92,-1.872 0,-0.984 -0.816,-1.728 -1.92,-1.728 -1.104,0 -1.92,0.792 -1.92,1.8 0,1.008 0.816,1.8 1.92,1.8 z m -1.512,14.928 h 3 v -12.816 h -3 z"
         style="fill:#ffffff"
         id="path1029" />
      <path
         d="m 487.4055,282.57778 h 3 v -17.808 h -3 z"
         style="fill:#ffffff"
         id="path1031" />
      <path
         d="m 498.303,282.74578 c 3.6,0 5.808,-1.56 5.808,-3.96 0,-5.016 -7.92,-2.712 -7.92,-5.304 0,-0.84 0.864,-1.44 2.688,-1.44 1.224,0 2.448,0.24 3.672,0.96 l 1.152,-2.28 c -1.152,-0.696 -3.096,-1.104 -4.8,-1.104 -3.456,0 -5.64,1.584 -5.64,4.008 0,5.112 7.92,2.808 7.92,5.256 0,0.888 -0.792,1.416 -2.688,1.416 -1.608,0 -3.336,-0.528 -4.464,-1.272 l -1.152,2.28 c 1.152,0.816 3.288,1.44 5.424,1.44 z"
         style="fill:#ffffff"
         id="path1033" />
    </g>
    <g
       aria-label="Cursos Udemy"
       transform="matrix(0.26458333,0,0,0.26458333,-59.266667,1.5875)"
       style="font-style:normal;font-variant:normal;font-weight:600;font-stretch:normal;font-size:24px;line-height:1.25;font-family:Montserrat;-inkscape-font-specification:'Montserrat, Semi-Bold';font-variant-ligatures:normal;font-variant-caps:normal;font-variant-numeric:normal;text-align:start;letter-spacing:0px;word-spacing:0px;writing-mode:lr-tb;text-anchor:start;fill:#ffffff;fill-opacity:1;stroke:none"
       id="flowRoot912">
      <path
         d="m 424.032,428.81778 c 2.76,0 5.112,-0.984 6.672,-2.808 l -2.016,-1.92 c -1.224,1.344 -2.736,1.992 -4.488,1.992 -3.48,0 -6,-2.448 -6,-5.904 0,-3.456 2.52,-5.904 6,-5.904 1.752,0 3.264,0.648 4.488,1.968 l 2.016,-1.896 c -1.56,-1.824 -3.912,-2.808 -6.648,-2.808 -5.16,0 -9,3.624 -9,8.64 0,5.016 3.84,8.64 8.976,8.64 z"
         style="fill:#ffffff"
         id="path1036" />
      <path
         d="m 442.4385,415.76178 v 6.48 c 0,2.568 -1.416,3.864 -3.504,3.864 -1.896,0 -3,-1.104 -3,-3.432 v -6.912 h -3 v 7.32 c 0,3.864 2.232,5.664 5.52,5.664 1.656,0 3.168,-0.624 4.128,-1.8 v 1.632 h 2.856 v -12.816 z"
         style="fill:#ffffff"
         id="path1038" />
      <path
         d="m 452.24587,417.63378 v -1.872 h -2.85599 v 12.816 h 3 v -6.216 c 0,-2.616 1.44,-3.96 3.71999,-3.96 0.216,0 0.432,0.024 0.69601,0.072 v -2.856 c -2.13601,0 -3.69601,0.672 -4.56001,2.016 z"
         style="fill:#ffffff"
         id="path1040" />
      <path
         d="m 463.33425,428.74578 c 3.6,0 5.808,-1.56 5.808,-3.96 0,-5.016 -7.92,-2.712 -7.92,-5.304 0,-0.84 0.864,-1.44 2.688,-1.44 1.224,0 2.448,0.24 3.672,0.96 l 1.152,-2.28 c -1.152,-0.696 -3.096,-1.104 -4.8,-1.104 -3.456,0 -5.64,1.584 -5.64,4.008 0,5.112 7.92,2.808 7.92,5.256 0,0.888 -0.792,1.416 -2.688,1.416 -1.608,0 -3.336,-0.528 -4.464,-1.272 l -1.152,2.28 c 1.152,0.816 3.288,1.44 5.424,1.44 z"
         style="fill:#ffffff"
         id="path1042" />
      <path
         d="m 477.50925,428.74578 c 3.984,0 6.84,-2.736 6.84,-6.576 0,-3.84 -2.856,-6.552 -6.84,-6.552 -3.936,0 -6.816,2.712 -6.816,6.552 0,3.84 2.88,6.576 6.816,6.576 z m 0,-2.568 c -2.16,0 -3.792,-1.56 -3.792,-4.008 0,-2.448 1.632,-4.008 3.792,-4.008 2.184,0 3.816,1.56 3.816,4.008 0,2.448 -1.632,4.008 -3.816,4.008 z"
         style="fill:#ffffff"
         id="path1044" />
      <path
         d="m 491.178,428.74578 c 3.6,0 5.808,-1.56 5.808,-3.96 0,-5.016 -7.92,-2.712 -7.92,-5.304 0,-0.84 0.864,-1.44 2.688,-1.44 1.224,0 2.448,0.24 3.672,0.96 l 1.152,-2.28 c -1.152,-0.696 -3.096,-1.104 -4.8,-1.104 -3.456,0 -5.64,1.584 -5.64,4.008 0,5.112 7.92,2.808 7.92,5.256 0,0.888 -0.792,1.416 -2.688,1.416 -1.608,0 -3.336,-0.528 -4.464,-1.272 l -1.152,2.28 c 1.152,0.816 3.288,1.44 5.424,1.44 z"
         style="fill:#ffffff"
         id="path1046" />
      <path
         d="m 513.71438,428.81778 c 4.58399,0 7.34399,-2.664 7.34399,-7.56 v -9.48 h -3.072 v 9.36 c 0,3.456 -1.536,4.944 -4.24799,4.944 -2.71201,0 -4.272,-1.488 -4.272,-4.944 v -9.36 h -3.12 v 9.48 c 0,4.896 2.76,7.56 7.368,7.56 z"
         style="fill:#ffffff"
         id="path1048" />
      <path
         d="m 534.69187,410.76978 v 6.576 c -1.008,-1.176 -2.472,-1.728 -4.12799,-1.728 -3.72,0 -6.48,2.568 -6.48,6.552 0,3.984 2.76,6.576 6.48,6.576 1.75199,0 3.23999,-0.6 4.24799,-1.824 v 1.656 h 2.88 v -17.808 z m -3.768,15.408 c -2.16,0 -3.81599,-1.56 -3.81599,-4.008 0,-2.448 1.65599,-4.008 3.81599,-4.008 2.16001,0 3.816,1.56 3.816,4.008 0,2.448 -1.65599,4.008 -3.816,4.008 z"
         style="fill:#ffffff"
         id="path1050" />
      <path
         d="m 553.68787,422.24178 c 0,-4.008 -2.736,-6.624 -6.48,-6.624 -3.81599,0 -6.62399,2.736 -6.62399,6.552 0,3.816 2.784,6.576 7.07999,6.576 2.20801,0 4.008,-0.72 5.16001,-2.088 l -1.60801,-1.848 c -0.912,0.936 -2.03999,1.392 -3.48,1.392 -2.232,0 -3.79199,-1.2 -4.15199,-3.072 h 10.05599 c 0.024,-0.288 0.048,-0.648 0.048,-0.888 z m -6.48,-4.224 c 1.96801,0 3.384,1.272 3.624,3.12 h -7.27199 c 0.288,-1.872 1.70399,-3.12 3.64799,-3.12 z"
         style="fill:#ffffff"
         id="path1052" />
      <path
         d="m 572.72212,415.61778 c -2.03999,0 -3.768,0.816 -4.79999,2.136 -0.888,-1.44 -2.44801,-2.136 -4.32001,-2.136 -1.75199,0 -3.24,0.624 -4.2,1.776 v -1.632 h -2.856 v 12.816 h 3 v -6.504 c 0,-2.544 1.344,-3.84 3.336,-3.84 1.82401,0 2.88,1.104 2.88,3.384 v 6.96 h 3 v -6.504 c 0,-2.544 1.36801,-3.84 3.336,-3.84 1.82401,0 2.88,1.104 2.88,3.384 v 6.96 h 3 v -7.344 c 0,-3.864 -2.16,-5.616 -5.256,-5.616 z"
         style="fill:#ffffff"
         id="path1054" />
      <path
         d="m 590.69737,415.76178 -4.05599,9.48 -4.03201,-9.48 h -3.12 l 5.592,12.864 -0.216,0.504 c -0.576,1.272 -1.19999,1.776 -2.256,1.776 -0.816,0 -1.63199,-0.336 -2.20799,-0.888 l -1.20001,2.208 c 0.81601,0.744 2.16,1.176 3.432,1.176 2.136,0 3.76801,-0.888 4.944,-3.792 l 6,-13.848 z"
         style="fill:#ffffff"
         id="path1056" />
    </g>
    <g
       aria-label="Bootcamp Laboratoria"
       transform="matrix(0.26458333,0,0,0.26458333,-47.625,4.7625)"
       style="font-style:normal;font-variant:normal;font-weight:600;font-stretch:normal;font-size:24px;line-height:1.25;font-family:Montserrat;-inkscape-font-specification:'Montserrat, Semi-Bold';font-variant-ligatures:normal;font-variant-caps:normal;font-variant-numeric:normal;text-align:start;letter-spacing:0px;word-spacing:0px;writing-mode:lr-tb;text-anchor:start;fill:#ffffff;fill-opacity:1;stroke:none"
       id="flowRoot920">
      <path
         d="m 392.16,585.84178 c 1.296,-0.696 2.16,-1.968 2.16,-3.696 0,-2.664 -2.16,-4.368 -6.192,-4.368 h -7.872 v 16.8 h 8.352 c 4.32,0 6.576,-1.68 6.576,-4.56 0,-2.184 -1.224,-3.6 -3.024,-4.176 z m -4.368,-5.616 c 2.16,0 3.384,0.768 3.384,2.328 0,1.536 -1.224,2.304 -3.384,2.304 h -4.416 v -4.632 z m 0.624,11.904 h -5.04 v -4.848 h 5.04 c 2.352,0 3.624,0.744 3.624,2.424 0,1.68 -1.272,2.424 -3.624,2.424 z"
         style="fill:#ffffff"
         id="path1059" />
      <path
         d="m 404.00925,594.74578 c 3.984,0 6.84,-2.736 6.84,-6.576 0,-3.84 -2.856,-6.552 -6.84,-6.552 -3.936,0 -6.816,2.712 -6.816,6.552 0,3.84 2.88,6.576 6.816,6.576 z m 0,-2.568 c -2.16,0 -3.792,-1.56 -3.792,-4.008 0,-2.448 1.632,-4.008 3.792,-4.008 2.184,0 3.816,1.56 3.816,4.008 0,2.448 -1.632,4.008 -3.816,4.008 z"
         style="fill:#ffffff"
         id="path1061" />
      <path
         d="m 419.478,594.74578 c 3.984,0 6.84,-2.736 6.84,-6.576 0,-3.84 -2.856,-6.552 -6.84,-6.552 -3.936,0 -6.816,2.712 -6.816,6.552 0,3.84 2.88,6.576 6.816,6.576 z m 0,-2.568 c -2.16,0 -3.792,-1.56 -3.792,-4.008 0,-2.448 1.632,-4.008 3.792,-4.008 2.184,0 3.816,1.56 3.816,4.008 0,2.448 -1.632,4.008 -3.816,4.008 z"
         style="fill:#ffffff"
         id="path1063" />
      <path
         d="m 436.05075,591.74578 c -0.456,0.36 -1.056,0.528 -1.68,0.528 -1.152,0 -1.776,-0.672 -1.776,-1.92 v -6.096 h 3.432 v -2.4 h -3.432 v -2.928 h -3 v 2.928 h -2.112 v 2.4 h 2.112 v 6.168 c 0,2.832 1.608,4.32 4.416,4.32 1.08,0 2.16,-0.288 2.88,-0.864 z"
         style="fill:#ffffff"
         id="path1065" />
      <path
         d="m 444.81675,594.74578 c 2.496,0 4.488,-1.08 5.472,-3 l -2.304,-1.344 c -0.768,1.224 -1.92,1.776 -3.192,1.776 -2.208,0 -3.888,-1.512 -3.888,-4.008 0,-2.472 1.68,-4.008 3.888,-4.008 1.272,0 2.424,0.552 3.192,1.776 l 2.304,-1.344 c -0.984,-1.944 -2.976,-2.976 -5.472,-2.976 -4.056,0 -6.936,2.712 -6.936,6.552 0,3.84 2.88,6.576 6.936,6.576 z"
         style="fill:#ffffff"
         id="path1067" />
      <path
         d="m 457.75462,581.61778 c -2.064,0 -4.056,0.528 -5.424,1.584 l 1.176,2.184 c 0.96001,-0.792 2.44801,-1.272 3.88801,-1.272 2.13599,0 3.192,1.032 3.192,2.784 v 0.192 h -3.312 c -3.88801,0 -5.32801,1.68 -5.32801,3.816 0,2.232 1.848,3.84 4.776,3.84 1.92,0 3.312,-0.624 4.032,-1.728 v 1.56 h 2.83201 v -7.512 c 0,-3.696 -2.13601,-5.448 -5.83201,-5.448 z m -0.40799,10.944 c -1.536,0 -2.44801,-0.696 -2.44801,-1.776 0,-0.936 0.552,-1.704 2.59201,-1.704 h 3.096 v 1.488 c -0.50401,1.32 -1.776,1.992 -3.24,1.992 z"
         style="fill:#ffffff"
         id="path1069" />
      <path
         d="m 483.61275,581.61778 c -2.04,0 -3.768,0.816 -4.8,2.136 -0.888,-1.44 -2.448,-2.136 -4.32,-2.136 -1.752,0 -3.24,0.624 -4.2,1.776 v -1.632 h -2.856 v 12.816 h 3 v -6.504 c 0,-2.544 1.344,-3.84 3.336,-3.84 1.824,0 2.88,1.104 2.88,3.384 v 6.96 h 3 v -6.504 c 0,-2.544 1.368,-3.84 3.336,-3.84 1.824,0 2.88,1.104 2.88,3.384 v 6.96 h 3 v -7.344 c 0,-3.864 -2.16,-5.616 -5.256,-5.616 z"
         style="fill:#ffffff"
         id="path1071" />
      <path
         d="m 499.80637,581.61778 c -1.752,0 -3.24,0.6 -4.248,1.824 v -1.68 h -2.85599 v 17.472 h 3 v -6.216 c 1.03199,1.176 2.47199,1.728 4.10399,1.728 3.744,0 6.50401,-2.592 6.50401,-6.576 0,-3.96 -2.76001,-6.552 -6.50401,-6.552 z m -0.336,10.56 c -2.15999,0 -3.81599,-1.56 -3.81599,-4.008 0,-2.448 1.656,-4.008 3.81599,-4.008 2.16001,0 3.79201,1.56 3.79201,4.008 0,2.448 -1.632,4.008 -3.79201,4.008 z"
         style="fill:#ffffff"
         id="path1073" />
      <path
         d="m 380.256,624.57778 h 11.904 v -2.64 h -8.784 v -14.16 h -3.12 z"
         style="fill:#ffffff"
         id="path1075" />
      <path
         d="m 399.39525,611.61778 c -2.064,0 -4.056,0.528 -5.424,1.584 l 1.176,2.184 c 0.96,-0.792 2.448,-1.272 3.888,-1.272 2.136,0 3.192,1.032 3.192,2.784 v 0.192 h -3.312 c -3.888,0 -5.328,1.68 -5.328,3.816 0,2.232 1.848,3.84 4.776,3.84 1.92,0 3.312,-0.624 4.032,-1.728 v 1.56 h 2.832 v -7.512 c 0,-3.696 -2.136,-5.448 -5.832,-5.448 z m -0.408,10.944 c -1.536,0 -2.448,-0.696 -2.448,-1.776 0,-0.936 0.552,-1.704 2.592,-1.704 h 3.096 v 1.488 c -0.504,1.32 -1.776,1.992 -3.24,1.992 z"
         style="fill:#ffffff"
         id="path1077" />
      <path
         d="m 416.18137,611.61778 c -1.632,0 -3.072,0.552 -4.10399,1.704 v -6.552 h -3 v 17.808 h 2.85599 v -1.656 c 1.008,1.224 2.496,1.824 4.248,1.824 3.744,0 6.50401,-2.592 6.50401,-6.576 0,-3.984 -2.76001,-6.552 -6.50401,-6.552 z m -0.336,10.56 c -2.15999,0 -3.81599,-1.56 -3.81599,-4.008 0,-2.448 1.656,-4.008 3.81599,-4.008 2.16001,0 3.79201,1.56 3.79201,4.008 0,2.448 -1.632,4.008 -3.79201,4.008 z"
         style="fill:#ffffff"
         id="path1079" />
      <path
         d="m 431.2905,624.74578 c 3.984,0 6.84,-2.736 6.84,-6.576 0,-3.84 -2.856,-6.552 -6.84,-6.552 -3.936,0 -6.816,2.712 -6.816,6.552 0,3.84 2.88,6.576 6.816,6.576 z m 0,-2.568 c -2.16,0 -3.792,-1.56 -3.792,-4.008 0,-2.448 1.632,-4.008 3.792,-4.008 2.184,0 3.816,1.56 3.816,4.008 0,2.448 -1.632,4.008 -3.816,4.008 z"
         style="fill:#ffffff"
         id="path1081" />
      <path
         d="m 443.85525,613.63378 v -1.872 h -2.856 v 12.816 h 3 v -6.216 c 0,-2.616 1.44,-3.96 3.72,-3.96 0.216,0 0.432,0.024 0.696,0.072 v -2.856 c -2.136,0 -3.696,0.672 -4.56,2.016 z"
         style="fill:#ffffff"
         id="path1083" />
      <path
         d="m 455.78587,611.61778 c -2.064,0 -4.056,0.528 -5.424,1.584 l 1.176,2.184 c 0.96001,-0.792 2.44801,-1.272 3.88801,-1.272 2.13599,0 3.192,1.032 3.192,2.784 v 0.192 h -3.312 c -3.88801,0 -5.32801,1.68 -5.32801,3.816 0,2.232 1.848,3.84 4.776,3.84 1.92,0 3.312,-0.624 4.032,-1.728 v 1.56 h 2.83201 v -7.512 c 0,-3.696 -2.13601,-5.448 -5.83201,-5.448 z m -0.40799,10.944 c -1.536,0 -2.44801,-0.696 -2.44801,-1.776 0,-0.936 0.552,-1.704 2.59201,-1.704 h 3.096 v 1.488 c -0.50401,1.32 -1.776,1.992 -3.24,1.992 z"
         style="fill:#ffffff"
         id="path1085" />
      <path
         d="m 472.332,621.74578 c -0.456,0.36 -1.056,0.528 -1.68,0.528 -1.152,0 -1.776,-0.672 -1.776,-1.92 v -6.096 h 3.432 v -2.4 h -3.432 v -2.928 h -3 v 2.928 h -2.112 v 2.4 h 2.112 v 6.168 c 0,2.832 1.608,4.32 4.416,4.32 1.08,0 2.16,-0.288 2.88,-0.864 z"
         style="fill:#ffffff"
         id="path1087" />
      <path
         d="m 480.978,624.74578 c 3.984,0 6.84,-2.736 6.84,-6.576 0,-3.84 -2.856,-6.552 -6.84,-6.552 -3.936,0 -6.816,2.712 -6.816,6.552 0,3.84 2.88,6.576 6.816,6.576 z m 0,-2.568 c -2.16,0 -3.792,-1.56 -3.792,-4.008 0,-2.448 1.632,-4.008 3.792,-4.008 2.184,0 3.816,1.56 3.816,4.008 0,2.448 -1.632,4.008 -3.816,4.008 z"
         style="fill:#ffffff"
         id="path1089" />
      <path
         d="m 493.54275,613.63378 v -1.872 h -2.856 v 12.816 h 3 v -6.216 c 0,-2.616 1.44,-3.96 3.72,-3.96 0.216,0 0.432,0.024 0.696,0.072 v -2.856 c -2.136,0 -3.696,0.672 -4.56,2.016 z"
         style="fill:#ffffff"
         id="path1091" />
      <path
         d="m 502.13625,609.64978 c 1.128,0 1.92,-0.816 1.92,-1.872 0,-0.984 -0.816,-1.728 -1.92,-1.728 -1.104,0 -1.92,0.792 -1.92,1.8 0,1.008 0.816,1.8 1.92,1.8 z m -1.512,14.928 h 3 v -12.816 h -3 z"
         style="fill:#ffffff"
         id="path1093" />
      <path
         d="m 512.45775,611.61778 c -2.064,0 -4.056,0.528 -5.424,1.584 l 1.176,2.184 c 0.96,-0.792 2.448,-1.272 3.888,-1.272 2.136,0 3.192,1.032 3.192,2.784 v 0.192 h -3.312 c -3.888,0 -5.328,1.68 -5.328,3.816 0,2.232 1.848,3.84 4.776,3.84 1.92,0 3.312,-0.624 4.032,-1.728 v 1.56 h 2.832 v -7.512 c 0,-3.696 -2.136,-5.448 -5.832,-5.448 z m -0.408,10.944 c -1.536,0 -2.448,-0.696 -2.448,-1.776 0,-0.936 0.552,-1.704 2.592,-1.704 h 3.096 v 1.488 c -0.504,1.32 -1.776,1.992 -3.24,1.992 z"
         style="fill:#ffffff"
         id="path1095" />
    </g>
    <g
       aria-label="Desarrolladora
Front-End"
       transform="matrix(0.26458333,0,0,0.26458333,-50.8,2.1166667)"
       style="font-style:normal;font-variant:normal;font-weight:600;font-stretch:normal;font-size:24px;line-height:1.25;font-family:Montserrat;-inkscape-font-specification:'Montserrat, Semi-Bold';font-variant-ligatures:normal;font-variant-caps:normal;font-variant-numeric:normal;text-align:start;letter-spacing:0px;word-spacing:0px;writing-mode:lr-tb;text-anchor:start;fill:#ffffff;fill-opacity:1;stroke:none"
       id="flowRoot928">
      <path
         d="m 388.256,778.57778 h 7.344 c 5.448,0 9.168,-3.36 9.168,-8.4 0,-5.04 -3.72,-8.4 -9.168,-8.4 h -7.344 z m 3.12,-2.64 v -11.52 h 4.08 c 3.744,0 6.168,2.28 6.168,5.76 0,3.48 -2.424,5.76 -6.168,5.76 z"
         style="fill:#ffffff"
         id="path1098" />
      <path
         d="m 419.84413,772.24178 c 0,-4.008 -2.73601,-6.624 -6.48001,-6.624 -3.81599,0 -6.624,2.736 -6.624,6.552 0,3.816 2.78401,6.576 7.08001,6.576 2.20799,0 4.00799,-0.72 5.15999,-2.088 l -1.608,-1.848 c -0.912,0.936 -2.03999,1.392 -3.47999,1.392 -2.23201,0 -3.79201,-1.2 -4.15201,-3.072 h 10.05601 c 0.024,-0.288 0.048,-0.648 0.048,-0.888 z m -6.48001,-4.224 c 1.96801,0 3.38401,1.272 3.62401,3.12 h -7.27201 c 0.288,-1.872 1.704,-3.12 3.648,-3.12 z"
         style="fill:#ffffff"
         id="path1100" />
      <path
         d="m 426.66237,778.74578 c 3.60001,0 5.808,-1.56 5.808,-3.96 0,-5.016 -7.92,-2.712 -7.92,-5.304 0,-0.84 0.864,-1.44 2.68801,-1.44 1.22399,0 2.44799,0.24 3.67199,0.96 l 1.152,-2.28 c -1.152,-0.696 -3.09599,-1.104 -4.79999,-1.104 -3.45601,0 -5.64001,1.584 -5.64001,4.008 0,5.112 7.92,2.808 7.92,5.256 0,0.888 -0.79199,1.416 -2.688,1.416 -1.608,0 -3.336,-0.528 -4.464,-1.272 l -1.15199,2.28 c 1.15199,0.816 3.28799,1.44 5.42399,1.44 z"
         style="fill:#ffffff"
         id="path1102" />
      <path
         d="m 439.97337,765.61778 c -2.064,0 -4.056,0.528 -5.424,1.584 l 1.176,2.184 c 0.96001,-0.792 2.44801,-1.272 3.88801,-1.272 2.13599,0 3.192,1.032 3.192,2.784 v 0.192 h -3.312 c -3.88801,0 -5.32801,1.68 -5.32801,3.816 0,2.232 1.848,3.84 4.776,3.84 1.92,0 3.312,-0.624 4.032,-1.728 v 1.56 h 2.83201 v -7.512 c 0,-3.696 -2.13601,-5.448 -5.83201,-5.448 z m -0.40799,10.944 c -1.536,0 -2.44801,-0.696 -2.44801,-1.776 0,-0.936 0.552,-1.704 2.59201,-1.704 h 3.096 v 1.488 c -0.50401,1.32 -1.776,1.992 -3.24,1.992 z"
         style="fill:#ffffff"
         id="path1104" />
      <path
         d="m 452.5115,767.63378 v -1.872 h -2.856 v 12.816 h 3 v -6.216 c 0,-2.616 1.44,-3.96 3.72,-3.96 0.216,0 0.432,0.024 0.696,0.072 v -2.856 c -2.136,0 -3.696,0.672 -4.56,2.016 z"
         style="fill:#ffffff"
         id="path1106" />
      <path
         d="m 462.449,767.63378 v -1.872 h -2.856 v 12.816 h 3 v -6.216 c 0,-2.616 1.44,-3.96 3.72,-3.96 0.216,0 0.432,0.024 0.696,0.072 v -2.856 c -2.136,0 -3.696,0.672 -4.56,2.016 z"
         style="fill:#ffffff"
         id="path1108" />
      <path
         d="m 475.19675,778.74578 c 3.984,0 6.84,-2.736 6.84,-6.576 0,-3.84 -2.856,-6.552 -6.84,-6.552 -3.936,0 -6.816,2.712 -6.816,6.552 0,3.84 2.88,6.576 6.816,6.576 z m 0,-2.568 c -2.16,0 -3.792,-1.56 -3.792,-4.008 0,-2.448 1.632,-4.008 3.792,-4.008 2.184,0 3.816,1.56 3.816,4.008 0,2.448 -1.632,4.008 -3.816,4.008 z"
         style="fill:#ffffff"
         id="path1110" />
      <path
         d="m 484.9055,778.57778 h 3 v -17.808 h -3 z"
         style="fill:#ffffff"
         id="path1112" />
      <path
         d="m 491.843,778.57778 h 3 v -17.808 h -3 z"
         style="fill:#ffffff"
         id="path1114" />
      <path
         d="m 503.6765,765.61778 c -2.064,0 -4.056,0.528 -5.424,1.584 l 1.176,2.184 c 0.96,-0.792 2.448,-1.272 3.888,-1.272 2.136,0 3.192,1.032 3.192,2.784 v 0.192 h -3.312 c -3.888,0 -5.328,1.68 -5.328,3.816 0,2.232 1.848,3.84 4.776,3.84 1.92,0 3.312,-0.624 4.032,-1.728 v 1.56 h 2.832 v -7.512 c 0,-3.696 -2.136,-5.448 -5.832,-5.448 z m -0.408,10.944 c -1.536,0 -2.448,-0.696 -2.448,-1.776 0,-0.936 0.552,-1.704 2.592,-1.704 h 3.096 v 1.488 c -0.504,1.32 -1.776,1.992 -3.24,1.992 z"
         style="fill:#ffffff"
         id="path1116" />
      <path
         d="m 523.05125,760.76978 v 6.576 c -1.008,-1.176 -2.472,-1.728 -4.128,-1.728 -3.72,0 -6.48,2.568 -6.48,6.552 0,3.984 2.76,6.576 6.48,6.576 1.752,0 3.24,-0.6 4.248,-1.824 v 1.656 h 2.88 v -17.808 z m -3.768,15.408 c -2.16,0 -3.816,-1.56 -3.816,-4.008 0,-2.448 1.656,-4.008 3.816,-4.008 2.16,0 3.816,1.56 3.816,4.008 0,2.448 -1.656,4.008 -3.816,4.008 z"
         style="fill:#ffffff"
         id="path1118" />
      <path
         d="m 535.75925,778.74578 c 3.984,0 6.84,-2.736 6.84,-6.576 0,-3.84 -2.856,-6.552 -6.84,-6.552 -3.936,0 -6.816,2.712 -6.816,6.552 0,3.84 2.88,6.576 6.816,6.576 z m 0,-2.568 c -2.16,0 -3.792,-1.56 -3.792,-4.008 0,-2.448 1.632,-4.008 3.792,-4.008 2.184,0 3.816,1.56 3.816,4.008 0,2.448 -1.632,4.008 -3.816,4.008 z"
         style="fill:#ffffff"
         id="path1120" />
      <path
         d="m 548.324,767.63378 v -1.872 h -2.856 v 12.816 h 3 v -6.216 c 0,-2.616 1.44,-3.96 3.72,-3.96 0.216,0 0.432,0.024 0.696,0.072 v -2.856 c -2.136,0 -3.696,0.672 -4.56,2.016 z"
         style="fill:#ffffff"
         id="path1122" />
      <path
         d="m 560.25463,765.61778 c -2.06401,0 -4.05601,0.528 -5.424,1.584 l 1.17599,2.184 c 0.96001,-0.792 2.448,-1.272 3.88801,-1.272 2.13599,0 3.192,1.032 3.192,2.784 v 0.192 h -3.312 c -3.88801,0 -5.328,1.68 -5.328,3.816 0,2.232 1.84799,3.84 4.77599,3.84 1.92,0 3.312,-0.624 4.03201,-1.728 v 1.56 h 2.832 v -7.512 c 0,-3.696 -2.13601,-5.448 -5.832,-5.448 z m -0.408,10.944 c -1.53601,0 -2.448,-0.696 -2.448,-1.776 0,-0.936 0.55199,-1.704 2.592,-1.704 h 3.096 v 1.488 c -0.50401,1.32 -1.77601,1.992 -3.24,1.992 z"
         style="fill:#ffffff"
         id="path1124" />
      <path
         d="m 400.52,794.39378 v -2.616 h -12.264 v 16.8 h 3.12 v -6.432 h 8.112 v -2.64 h -8.112 v -5.112 z"
         style="fill:#ffffff"
         id="path1126" />
      <path
         d="m 405.87087,797.63378 v -1.872 h -2.85599 v 12.816 h 3 v -6.216 c 0,-2.616 1.44,-3.96 3.71999,-3.96 0.216,0 0.432,0.024 0.69601,0.072 v -2.856 c -2.13601,0 -3.69601,0.672 -4.56001,2.016 z"
         style="fill:#ffffff"
         id="path1128" />
      <path
         d="m 418.61862,808.74578 c 3.984,0 6.84,-2.736 6.84,-6.576 0,-3.84 -2.856,-6.552 -6.84,-6.552 -3.936,0 -6.816,2.712 -6.816,6.552 0,3.84 2.88,6.576 6.816,6.576 z m 0,-2.568 c -2.16,0 -3.792,-1.56 -3.792,-4.008 0,-2.448 1.632,-4.008 3.792,-4.008 2.184,0 3.816,1.56 3.816,4.008 0,2.448 -1.632,4.008 -3.816,4.008 z"
         style="fill:#ffffff"
         id="path1130" />
      <path
         d="m 435.59937,795.61778 c -1.872,0 -3.432,0.624 -4.416,1.8 v -1.656 h -2.85599 v 12.816 h 3 v -6.48 c 0,-2.568 1.44,-3.864 3.57599,-3.864 1.92,0 3.048,1.104 3.048,3.384 v 6.96 h 3 v -7.344 c 0,-3.864 -2.28,-5.616 -5.352,-5.616 z"
         style="fill:#ffffff"
         id="path1132" />
      <path
         d="m 451.6445,805.74578 c -0.456,0.36 -1.056,0.528 -1.68,0.528 -1.152,0 -1.776,-0.672 -1.776,-1.92 v -6.096 h 3.432 v -2.4 h -3.432 v -2.928 h -3 v 2.928 h -2.112 v 2.4 h 2.112 v 6.168 c 0,2.832 1.608,4.32 4.416,4.32 1.08,0 2.16,-0.288 2.88,-0.864 z"
         style="fill:#ffffff"
         id="path1134" />
      <path
         d="m 454.07,803.15378 h 6.6 v -2.496 h -6.6 z"
         style="fill:#ffffff"
         id="path1136" />
      <path
         d="m 467.36037,805.96178 v -4.632 h 8.112 v -2.568 h -8.112 v -4.368 h 9.144 v -2.616 h -12.264 v 16.8 h 12.6 v -2.616 z"
         style="fill:#ffffff"
         id="path1138" />
      <path
         d="m 487.3025,795.61778 c -1.872,0 -3.432,0.624 -4.416,1.8 v -1.656 h -2.856 v 12.816 h 3 v -6.48 c 0,-2.568 1.44,-3.864 3.576,-3.864 1.92,0 3.048,1.104 3.048,3.384 v 6.96 h 3 v -7.344 c 0,-3.864 -2.28,-5.616 -5.352,-5.616 z"
         style="fill:#ffffff"
         id="path1140" />
      <path
         d="m 506.17625,790.76978 v 6.576 c -1.008,-1.176 -2.472,-1.728 -4.128,-1.728 -3.72,0 -6.48,2.568 -6.48,6.552 0,3.984 2.76,6.576 6.48,6.576 1.752,0 3.24,-0.6 4.248,-1.824 v 1.656 h 2.88 v -17.808 z m -3.768,15.408 c -2.16,0 -3.816,-1.56 -3.816,-4.008 0,-2.448 1.656,-4.008 3.816,-4.008 2.16,0 3.816,1.56 3.816,4.008 0,2.448 -1.656,4.008 -3.816,4.008 z"
         style="fill:#ffffff"
         id="path1142" />
    </g>
    <g
       aria-label="Un poco más sobre mí"
       transform="matrix(0.26458333,0,0,0.26458333,-50.270833,2.6458333)"
       style="font-style:normal;font-variant:normal;font-weight:600;font-stretch:normal;font-size:24px;line-height:1.25;font-family:Montserrat;-inkscape-font-specification:'Montserrat, Semi-Bold';font-variant-ligatures:normal;font-variant-caps:normal;font-variant-numeric:normal;text-align:start;letter-spacing:0px;word-spacing:0px;writing-mode:lr-tb;text-anchor:start;fill:#ffffff;fill-opacity:1;stroke:none"
       id="flowRoot938">
      <path
         d="m 395.48,946.81778 c 4.584,0 7.344,-2.664 7.344,-7.56 v -9.48 h -3.072 v 9.36 c 0,3.456 -1.536,4.944 -4.248,4.944 -2.712,0 -4.272,-1.488 -4.272,-4.944 v -9.36 h -3.12 v 9.48 c 0,4.896 2.76,7.56 7.368,7.56 z"
         style="fill:#ffffff"
         id="path1145" />
      <path
         d="m 414.1775,933.61778 c -1.872,0 -3.432,0.624 -4.416,1.8 v -1.656 h -2.856 v 12.816 h 3 v -6.48 c 0,-2.568 1.44,-3.864 3.576,-3.864 1.92,0 3.048,1.104 3.048,3.384 v 6.96 h 3 v -7.344 c 0,-3.864 -2.28,-5.616 -5.352,-5.616 z"
         style="fill:#ffffff"
         id="path1147" />
      <path
         d="m 437.072,933.61778 c -1.752,0 -3.24,0.6 -4.248,1.824 v -1.68 h -2.856 v 17.472 h 3 v -6.216 c 1.032,1.176 2.472,1.728 4.104,1.728 3.744,0 6.504,-2.592 6.504,-6.576 0,-3.96 -2.76,-6.552 -6.504,-6.552 z m -0.336,10.56 c -2.16,0 -3.816,-1.56 -3.816,-4.008 0,-2.448 1.656,-4.008 3.816,-4.008 2.16,0 3.792,1.56 3.792,4.008 0,2.448 -1.632,4.008 -3.792,4.008 z"
         style="fill:#ffffff"
         id="path1149" />
      <path
         d="m 452.18112,946.74578 c 3.984,0 6.84,-2.736 6.84,-6.576 0,-3.84 -2.856,-6.552 -6.84,-6.552 -3.936,0 -6.816,2.712 -6.816,6.552 0,3.84 2.88,6.576 6.816,6.576 z m 0,-2.568 c -2.16,0 -3.792,-1.56 -3.792,-4.008 0,-2.448 1.632,-4.008 3.792,-4.008 2.184,0 3.816,1.56 3.816,4.008 0,2.448 -1.632,4.008 -3.816,4.008 z"
         style="fill:#ffffff"
         id="path1151" />
      <path
         d="m 467.76988,946.74578 c 2.49599,0 4.488,-1.08 5.47199,-3 l -2.30399,-1.344 c -0.76801,1.224 -1.92001,1.776 -3.19201,1.776 -2.208,0 -3.888,-1.512 -3.888,-4.008 0,-2.472 1.68,-4.008 3.888,-4.008 1.272,0 2.424,0.552 3.19201,1.776 l 2.30399,-1.344 c -0.98399,-1.944 -2.976,-2.976 -5.47199,-2.976 -4.05601,0 -6.93601,2.712 -6.93601,6.552 0,3.84 2.88,6.576 6.93601,6.576 z"
         style="fill:#ffffff"
         id="path1153" />
      <path
         d="m 481.38425,946.74578 c 3.984,0 6.84,-2.736 6.84,-6.576 0,-3.84 -2.856,-6.552 -6.84,-6.552 -3.936,0 -6.816,2.712 -6.816,6.552 0,3.84 2.88,6.576 6.816,6.576 z m 0,-2.568 c -2.16,0 -3.792,-1.56 -3.792,-4.008 0,-2.448 1.632,-4.008 3.792,-4.008 2.184,0 3.816,1.56 3.816,4.008 0,2.448 -1.632,4.008 -3.816,4.008 z"
         style="fill:#ffffff"
         id="path1155" />
      <path
         d="m 513.87837,933.61778 c -2.04,0 -3.768,0.816 -4.8,2.136 -0.88799,-1.44 -2.44799,-2.136 -4.32,-2.136 -1.752,0 -3.24,0.624 -4.2,1.776 v -1.632 h -2.85599 v 12.816 h 3 v -6.504 c 0,-2.544 1.34399,-3.84 3.33599,-3.84 1.824,0 2.88001,1.104 2.88001,3.384 v 6.96 h 3 v -6.504 c 0,-2.544 1.368,-3.84 3.33599,-3.84 1.82401,0 2.88,1.104 2.88,3.384 v 6.96 h 3 v -7.344 c 0,-3.864 -2.16,-5.616 -5.256,-5.616 z"
         style="fill:#ffffff"
         id="path1157" />
      <path
         d="m 532.88,928.72178 h -3.528 l -3.24,3.288 h 2.592 z m -5.016,4.896 c -2.064,0 -4.056,0.528 -5.424,1.584 l 1.176,2.184 c 0.96,-0.792 2.448,-1.272 3.888,-1.272 2.136,0 3.192,1.032 3.192,2.784 v 0.192 h -3.312 c -3.888,0 -5.328,1.68 -5.328,3.816 0,2.232 1.848,3.84 4.776,3.84 1.92,0 3.312,-0.624 4.032,-1.728 v 1.56 h 2.832 v -7.512 c 0,-3.696 -2.136,-5.448 -5.832,-5.448 z m -0.408,10.944 c -1.536,0 -2.448,-0.696 -2.448,-1.776 0,-0.936 0.552,-1.704 2.592,-1.704 h 3.096 v 1.488 c -0.504,1.32 -1.776,1.992 -3.24,1.992 z"
         style="fill:#ffffff"
         id="path1159" />
      <path
         d="m 541.50612,946.74578 c 3.60001,0 5.808,-1.56 5.808,-3.96 0,-5.016 -7.91999,-2.712 -7.91999,-5.304 0,-0.84 0.86399,-1.44 2.688,-1.44 1.22399,0 2.44799,0.24 3.672,0.96 l 1.15199,-2.28 c -1.15199,-0.696 -3.096,-1.104 -4.79999,-1.104 -3.45601,0 -5.64,1.584 -5.64,4.008 0,5.112 7.91999,2.808 7.91999,5.256 0,0.888 -0.792,1.416 -2.688,1.416 -1.608,0 -3.336,-0.528 -4.464,-1.272 l -1.15199,2.28 c 1.15199,0.816 3.288,1.44 5.42399,1.44 z"
         style="fill:#ffffff"
         id="path1161" />
      <path
         d="m 391.928,976.74578 c 3.6,0 5.808,-1.56 5.808,-3.96 0,-5.016 -7.92,-2.712 -7.92,-5.304 0,-0.84 0.864,-1.44 2.688,-1.44 1.224,0 2.448,0.24 3.672,0.96 l 1.152,-2.28 c -1.152,-0.696 -3.096,-1.104 -4.8,-1.104 -3.456,0 -5.64,1.584 -5.64,4.008 0,5.112 7.92,2.808 7.92,5.256 0,0.888 -0.792,1.416 -2.688,1.416 -1.608,0 -3.336,-0.528 -4.464,-1.272 l -1.152,2.28 c 1.152,0.816 3.288,1.44 5.424,1.44 z"
         style="fill:#ffffff"
         id="path1163" />
      <path
         d="m 406.103,976.74578 c 3.984,0 6.84,-2.736 6.84,-6.576 0,-3.84 -2.856,-6.552 -6.84,-6.552 -3.936,0 -6.816,2.712 -6.816,6.552 0,3.84 2.88,6.576 6.816,6.576 z m 0,-2.568 c -2.16,0 -3.792,-1.56 -3.792,-4.008 0,-2.448 1.632,-4.008 3.792,-4.008 2.184,0 3.816,1.56 3.816,4.008 0,2.448 -1.632,4.008 -3.816,4.008 z"
         style="fill:#ffffff"
         id="path1165" />
      <path
         d="m 422.91575,963.61778 c -1.632,0 -3.072,0.552 -4.104,1.704 v -6.552 h -3 v 17.808 h 2.856 v -1.656 c 1.008,1.224 2.496,1.824 4.248,1.824 3.744,0 6.504,-2.592 6.504,-6.576 0,-3.984 -2.76,-6.552 -6.504,-6.552 z m -0.336,10.56 c -2.16,0 -3.816,-1.56 -3.816,-4.008 0,-2.448 1.656,-4.008 3.816,-4.008 2.16,0 3.792,1.56 3.792,4.008 0,2.448 -1.632,4.008 -3.792,4.008 z"
         style="fill:#ffffff"
         id="path1167" />
      <path
         d="m 435.12087,965.63378 v -1.872 h -2.85599 v 12.816 h 3 v -6.216 c 0,-2.616 1.44,-3.96 3.71999,-3.96 0.216,0 0.432,0.024 0.69601,0.072 v -2.856 c -2.13601,0 -3.69601,0.672 -4.56001,2.016 z"
         style="fill:#ffffff"
         id="path1169" />
      <path
         d="m 454.15663,970.24178 c 0,-4.008 -2.73601,-6.624 -6.48001,-6.624 -3.81599,0 -6.624,2.736 -6.624,6.552 0,3.816 2.78401,6.576 7.08001,6.576 2.20799,0 4.00799,-0.72 5.15999,-2.088 l -1.608,-1.848 c -0.912,0.936 -2.03999,1.392 -3.47999,1.392 -2.23201,0 -3.79201,-1.2 -4.15201,-3.072 h 10.05601 c 0.024,-0.288 0.048,-0.648 0.048,-0.888 z m -6.48001,-4.224 c 1.96801,0 3.38401,1.272 3.62401,3.12 h -7.27201 c 0.288,-1.872 1.704,-3.12 3.648,-3.12 z"
         style="fill:#ffffff"
         id="path1171" />
      <path
         d="m 479.80025,963.61778 c -2.04,0 -3.768,0.816 -4.8,2.136 -0.888,-1.44 -2.448,-2.136 -4.32,-2.136 -1.752,0 -3.24,0.624 -4.2,1.776 v -1.632 h -2.856 v 12.816 h 3 v -6.504 c 0,-2.544 1.344,-3.84 3.336,-3.84 1.824,0 2.88,1.104 2.88,3.384 v 6.96 h 3 v -6.504 c 0,-2.544 1.368,-3.84 3.336,-3.84 1.824,0 2.88,1.104 2.88,3.384 v 6.96 h 3 v -7.344 c 0,-3.864 -2.16,-5.616 -5.256,-5.616 z"
         style="fill:#ffffff"
         id="path1173" />
      <path
         d="m 488.38587,962.00978 h 2.592 l 4.17601,-3.288 h -3.52801 z m 0.50401,14.568 h 3 v -12.816 h -3 z"
         style="fill:#ffffff"
         id="path1175" />
    </g>
  </g>
</svg>
